<?xml version="1.0" encoding="utf-8" ?>
<!-- Generator: Adobe Illustrator 19.0.0, SVG Export Plug-In . SVG Version: 6.00 Build 0)  -->
<svg version="1.1" id="Calque_1" xmlns="http://www.w3.org/2000/svg" xmlns:xlink="http://www.w3.org/1999/xlink" x="0px" y="0px" viewBox="0 0 283.5 283.5" style="enable-background:new 0 0 283.5 283.5;" xml:space="preserve">
	<style type="text/css">
	.st1{fill-rule:evenodd;clip-rule:evenodd;fill:#FFFFFF;}
	.st3{fill-rule:evenodd;clip-rule:evenodd;fill:currentColor;}
</style>
	<path id="XMLID_22_" class="st1" d="M228.1,133.5c-0.1-11-1.7-22-0.7-31.9c1-9.9-4.7-13.5-7.8-14.1c-3.1-0.6-8.6,3.4-9.3,3.2
	c-0.7-0.2-9.3-4.9-13.3-6.9c-4-2-13.6-3.1-16.8-3c-3.2,0.1-3,0.2-5.6-5.1c-2.6-5.3-8.8-7.2-14.3-3.9c-5.4,3.3-10.1,12.4-13.6,17.5
	c-0.6,0.8-1.4,1.7-2.3,2.7c0.3-4.9,0.6-14,0-26.1c-0.8-16.6-12-0.5-16.7,4.7c-4.6,5.2-9.6,10.7-11.5,10.8c-1.9,0.1-8.2-1.3-16.5-1.2
	C91.4,80.3,79.8,84,79.8,84s-10.7-7.7-17.1-11.8c-6.4-4.1-8.3-3.4-6.5,5.7c1.8,9.1,7.5,26.7,7,28.9c-0.6,2.2-2.5,4.8-3,12.4
	c-0.4,7.7,1.5,16.4,1.5,16.4c1.9-3.3,5.2-8.4,16.4-9.5c17.4-1.6,19.5,16.4,19.5,16.4l11.6-0.7c0,0-0.8-1.8,0.6-7.5
	c1.4-5.6,4.9-12.4,19.8-13.4c2.1-0.2,4-0.1,5.7,0.2c5.2,1.3,9.4,4.3,12.4,7.9c0,0,0.1-0.1,0.1-0.2c0.2,0.4,0.3,0.6,0.3,0.6
	s0-0.5,0.1-1.3c2.5-4.5,9.5-20.5,9.7-17.8c0.2,3.1-9.2,20.3-7.9,22c4.4,5.7,3,15.4,3,15.4l21.7,6.7c3.2-6.4,14.8-12.4,23.3-11.1
	c4,0.6,2.3-11.5,6-21.5c1.2-3.1-1.1,17.2-1.3,22.4c5.7,4.2,8.8,14.1,8.8,14.1s3.2,0.1,6.7-0.8C227.6,155.1,228.2,144.5,228.1,133.5z
	" />
	<path id="XMLID_16_" class="st3" fill="currentColor" d="M177.2,113.8c8.3,2.6,17.6,6.2,11.3,11.9c-6.2,5.5-14,12-18.8,3.6
	C164.9,120.9,161.2,108.8,177.2,113.8z" />
	<path id="XMLID_14_" class="st1" d="M178.1,153.6c3.5-4.2,7.7-5.4,13.3-6.7c12.6-2.8,18.2,10.8,18.3,19.2c0.1,7.6-8.8,8.1-12.5,4.2
	c-2.3-2.4-6.8-8.1-10-7.5C180.6,164.1,170.4,162.9,178.1,153.6z" />
	<path id="XMLID_10_" class="st3" fill="currentColor" d="M96.8,113.9c4-0.6,12.3-1.3,9.2,3.7c-3.1,5-4.5,7.5-8.2,4.2C94.1,118.5,91.2,114.7,96.8,113.9z" />
	<path id="XMLID_12_" class="st1" d="M135.9,124.5c-2.9-1-5.4-1.1-7.8-0.6c-0.3,0-0.7,0-1,0c-10.9,0.6-16.1,10.4-14.9,17.3
	c0.8,4.6,4.4,5.6,8.4,4.6c1,0.1,2-0.1,2.8-0.3c3.6-1.2,10.5-2.8,15.4,3.2c6.7,8.2,11,1.5,10.8-4.8
	C149.6,137.6,148.4,128.7,135.9,124.5z" />
	<path id="XMLID_3_" class="st1" d="M61.2,146.8c-2-4.6,3.3-16.7,15.4-17.4c12.1-0.7,16.2,6,18.1,11.2c1.9,5.2-3.5,10.1-8.4,9.5
	c-5-0.6-9.3-5.7-13.4-2.4C68.8,151,63.8,152.9,61.2,146.8z" />
	<g id="XMLID_6_">
		<path id="XMLID_23_" class="st1" d="M234.7,198.9c-3.1,5.7-7.6,10.3-12.3,14.4c-0.3,0.3-0.5,0.7-1,0.7c-0.1-6.2,0.4-13.9,0.2-20.5
		c0-1,0.1-2.2-0.1-2.9c-0.4-1.5-3-2.4-4.5-2.7c-0.4,2.2-0.4,4.4-0.7,6.7c-0.3,2.2-0.4,4.4-0.9,6.4c-0.7,2.8-2,5.3-3.5,7.5
		c-0.4,0.6-1.2,1.7-2.1,1.5c-0.9-0.2-1.3-2.5-1.5-3.7c-0.3-3-0.3-6-0.4-9.4c0-1.5-0.1-3.2,0-4.8c0.1-2.5,0.4-5.2-0.7-6.5
		c-1.3-1.5-3.8-2.5-6.5-2c-0.8,4.1-0.1,9.4-0.2,14c0,0.8-0.7,1.8-1.1,2.7c-2.1,4.5-4.2,8.2-7,11.8c-1.1,1.4-2.5,3-4.2,3.4
		c-1.8,0.4-2.7-1.4-3.4-2.6c-1.8-3.4-2.9-7.1-4.5-10.6c3.7-5.7,7.7-11.2,11-17.3c-0.6-1.1-2.8-1.1-3.7-0.5c-0.4,0.3-0.8,0.9-1.2,1.5
		c-2.6,3.9-5.3,8.3-7.8,11.9c-1.2-2.2-2.1-4.6-3.4-6.9c-1.3-2.2-2.6-4.5-4.7-5.6c-1.4-0.7-2.9-0.6-4,0.2c-2.4,1.7-4.2,4.9-5.5,7.8
		c-1.4,3-2.7,6.2-4.3,9c-2.4,4.3-4.6,8.5-8.1,11.8c-1.4,1.3-3.9,3.9-5.4,1.6c-1.1-1.6-1.2-3.8-1.3-6c-0.2-4.6,0.6-9.1,1.2-13.5
		c0.2-2.1,0.8-5.1,0.2-6.8c-0.5-1.6-2.9-2.3-5.1-1.8c0.3,3.5-0.2,6.9-0.7,10c-0.2,1.1-0.1,2.3-0.4,3.3c-0.2,0.6-0.8,1.4-1.2,2.2
		c-1.3,2.3-2.6,4.4-4,6.5c-0.9,1.4-2,2.6-3,3.9c-1,1.3-2,2.8-3.1,3.8c-0.4,0.3-1,0.7-1.5,0.7c-1.5-0.2-1.6-3-1.6-4.9
		c-0.1-2.2,0.1-4.4,0.2-6.2c1.1-12.2,2.4-23.9,4.5-34.9c5-1,10.5-1.7,16.5-1.4c0.7-0.3,1.9-1.9,1-2.8c-0.2-0.2-1.3-0.4-1.9-0.4
		c-2.2-0.2-4.9-0.1-6.8,0.1c-3.1,0.3-5.9,0.7-8.2,1c0.1-1.3,0.5-3,0.9-4.8c0.3-1.8,0.8-3.7,0.4-5.1c-0.5-1.5-2.4-2.7-4.5-2.6
		c-0.8,0.1-0.6,0.8-0.7,1.6c-0.7,4.1-1.5,8.5-2.1,12.3c-1.1,0.6-3,0.4-4,1.3c-0.7,0.6-0.8,2.1,0.2,2.5c1,0.4,2.1-0.6,3.2-0.4
		c-2,10-3.4,20.9-4.4,32.1c-0.1,0.6-0.8,1.3-1.1,1.9c-1.1,1.9-2.2,3.6-3.4,5.3c-1.1,1.6-2.5,3.3-4,4.5c-0.5,0.4-1.1,1-1.6,1.2
		c-3.2,1.6-7.6,0.2-9-2.4c-0.8-1.5-1.1-3.7-1.3-5.7c-0.2-2.2-0.2-4.6,0.1-6.8c4.7-0.2,7.4-1.7,10-4c2.1-1.9,3.8-4.2,3.7-8
		c-0.1-3.6-2.3-5.8-5.4-6.3c-4.9-0.8-8.4,2.4-10.4,4.9c-2.4,3-3.9,6.6-4.8,10.8c-0.5,2.3-0.7,4.5-0.7,7.1c0.1,7.2,3.4,12.7,9,14.4
		c4.7,1.5,8.8-0.9,11.5-3.1c2.5-2.1,4.6-4.6,6.4-7.3c0.2-0.3,0.4-0.8,0.9-1c0.1,2.9,0.4,5.4,1.4,7.6c0.8,1.7,2,3.1,3.6,3.6
		c2.8,0.9,4.7-0.9,6-2.4c2.9-3.5,5.6-7.1,7.9-10.9c0.2-0.4,0.4-0.8,0.8-1c-0.4,6.1,0.5,11.8,5.9,12.2c3,0.2,5.1-1.2,6.7-2.5
		c5.1-4.1,8.5-10.1,11.4-16.4c1.4-3.1,2.7-6.6,4.3-9.5c0.5-0.9,1.2-2.2,1.9-2.7c2.1-1.7,3,1.4,3.6,3c1.6,4.6,2.8,9.1,4.1,13.7
		c-2.6,3.7-5.1,7.5-8.1,10.9c-0.4,0.4-1,1-1.6,1.6c-0.4,0.4-1.5,1.3-1.5,1.7c0.1,0.9,2,1.1,2.7,0.9c1.4-0.6,2.3-1.9,3.3-3.1
		c1.9-2.3,3.6-4.8,5.3-7.2c0.4-0.5,0.7-1.1,1.2-1.4c1.6,3.1,2.5,7.2,5.4,9c0.9,0.6,2.2,1.2,3.5,1.3c2,0.2,3.2-0.5,4.5-1.2
		c2.4-1.4,4.5-3.1,6.2-5.2c1.7-2.2,3-4.6,4.5-6.9c0.5-0.8,0.8-1.8,1.5-2.1c0.5,5.2,1.8,10.6,6.3,11.6c0.7,0.1,1.6,0,2.1-0.1
		c2.5-0.8,4.6-3.3,5.7-5.5c0.4-0.8,0.8-1.7,1.3-2.5c0,2.6,0.1,5.4,0.1,8.1c0,0.9,0.1,2-0.1,2.7c-0.1,0.5-1,1-1.4,1.3
		c-2.5,2.4-4.4,4.9-5.6,8.3c-0.5,1.4-0.9,3-0.7,4.9c0.3,2.9,3.4,5.2,6.6,4.8c3.7-0.4,4.3-4.5,4.9-8c0.4-2.7,0.8-5.9,0.9-8.6
		c0-1.1-0.1-2.3,0.1-3.1c0.2-0.6,1.5-1.6,2.1-2.1c0.8-0.7,1.6-1.4,2.3-2.1c3-3,5.8-5.7,8.2-9.1c1.2-1.7,2.4-3.5,3.1-5.4
		C236.8,198.7,235.6,198.9,234.7,198.9z M102.3,190.2c0.6-0.6,1.7-1.5,3-1.2c1.4,0.4,2.2,1.8,2,3.9c-0.3,2.7-2.4,5.1-4.5,6.5
		c-0.8,0.5-1.8,1.1-2.6,1.3c-1.1,0.3-2.3,0.4-3.2,0.1C97.9,197,99.8,192.6,102.3,190.2z M216.7,223.9c-0.1,1.6-0.2,3.3-0.4,4.8
		c-0.1,1-0.1,2-0.4,3.1c-0.2,0.8-0.6,2.1-1.3,2.1c-1.1,0.1-2-1.9-2.1-2.9c-0.2-2.1,0.8-3.9,1.6-5.4c0.8-1.4,1.7-2.4,2.5-3.3
		c0,0,0,0,0.1,0C216.9,222.7,216.8,223.4,216.7,223.9z" />
		<path id="XMLID_25_" class="st1" d="M89.8,169.6c-0.1-2.6-2.6-3.2-5.2-3.3c-2.3,12.9-4.7,25.9-7.9,37.9c-0.2,1.4-0.7,2.7-1.1,3.8
		c-0.1,0.4-0.1,0.9-0.5,1.1c-4.3-13.3-6.9-28.2-12-40.7c-1.6-4-3.7-8.4-8.8-8.8c-2.1-0.2-3.3,0.7-4.4,1.6c1.9,1.5,2.8,3.8,3.8,6.2
		c5.8,14.4,10.2,29.8,14.5,45.6c0.7,2.4,2.3,5,4.6,5.4c0.3,0.1,1.1,0.1,1.7,0c2.3-0.5,3.5-2.7,4.5-4.9c0.8-1.8,1.5-3.8,2.1-5.6
		c1.3-3.8,2.4-7.7,3.4-11.8c1.6-6.6,2.9-12.2,4-18.7c0.4-2.1,1-4.2,1.3-6.3C89.7,170.6,89.8,169.9,89.8,169.6z" />
		<path id="XMLID_26_" class="st1" d="M142.1,173.1c-1.3,0.2-2.7,0.9-3.3,1.7c-0.6,1-0.6,3,0.2,3.8c0.5,0.5,1.8,1,2.8,1.2
		c2.4,0.4,4.4-0.8,4.6-2.7C146.7,174.9,144.6,172.7,142.1,173.1z" />
	</g>
</svg>