<?xml version="1.0" encoding="utf-8" ?>
<svg version="1.1" xmlns="http://www.w3.org/2000/svg" xmlns:xlink="http://www.w3.org/1999/xlink" x="0px" y="0px" viewBox="0 0 237.6 246.03" style="enable-background:new 0 0 237.6 246.03;" xml:space="preserve" color="green">
	<g id="Calque_2">
		<polygon fill="currentColor" points="199.16,190.86 37.78,194.33 84.13,128.26 131.53,111.7" />
		<path d="M173.35,211.96H63.51c-14.77,0-27.47-8.04-32.36-20.48c-4.34-11.03-1.4-23.11,7.66-31.55l55-50.78
		c13.34-12.31,35.89-12.32,49.23-0.01l0.01,0.01l54.97,50.75c9.08,8.39,12.02,20.45,7.71,31.5
		C200.84,203.88,188.13,211.96,173.35,211.96z M118.43,120.99c-3.83,0-7.67,1.23-10.31,3.67l-54.96,50.74
		c-2.7,2.51-3.53,5.41-2.37,8.36c1.29,3.28,5.4,7.11,12.73,7.11h109.84c7.33,0,11.44-3.85,12.73-7.15c1.14-2.94,0.33-5.81-2.38-8.32
		l-54.97-50.75C126.08,122.21,122.25,120.99,118.43,120.99z" />
		<circle cx="213.86" cy="114.89" r="21.21" />
		<circle cx="158.15" cy="60.44" r="21.21" />
		<circle cx="78.6" cy="60.44" r="21.21" />
		<circle cx="23.73" cy="114.89" r="21.21" />
	</g>
	<g id="Calque_1"></g>
</svg>