<?xml version="1.0" encoding="utf-8"?>
<svg version="1.1" id="Calque_1" xmlns="http://www.w3.org/2000/svg" xmlns:xlink="http://www.w3.org/1999/xlink" x="0px" y="0px"
	 viewBox="0 0 237.6 246.03" style="enable-background:new 0 0 237.6 246;" xml:space="preserve">
<path fill="currentColor" d="M191.1,62.5l-8.9-25.2l-25.1-16.5L124,16.4H93.1L71.1,30l-23,29.9l-4.8,30.9l30.9,82.3l34.6,57.7l12.1,4.7
l29.4-34.6l39.8-77.5l8.4-39.4L191.1,62.5z M119.4,106c-10.9,0-19.8-8.8-19.8-19.8s8.8-19.8,19.8-19.8s19.8,8.8,19.8,19.8
C139.2,97.2,130.4,106,119.4,106z"/>
<path d="M119.4,243.9c-7.2,0-13.8-3.7-17.7-9.8c-25-40.4-66.9-113-66.9-146.5C34.9,40.9,72.8,3,119.4,3C166,3,204,40.9,204,87.5
	c0,33.4-41.9,106.1-66.9,146.5C133.3,240.2,126.7,243.9,119.4,243.9C119.4,243.9,119.4,243.9,119.4,243.9z M119.4,20.9
	c-36.7,0-66.6,29.9-66.6,66.6c0,20.9,24,72.1,64.2,137c0.7,1.2,1.8,1.4,2.4,1.4l0,0c0.6,0,1.7-0.2,2.4-1.4
	C162,159.6,186,108.4,186,87.5C186,50.8,156.1,20.9,119.4,20.9z"/>
<path d="M119.4,124c-20.8,0-37.7-16.9-37.7-37.7s16.9-37.7,37.7-37.7c20.8,0,37.7,16.9,37.7,37.7S140.2,124,119.4,124z M119.4,66.5
	c-10.9,0-19.8,8.9-19.8,19.8s8.9,19.8,19.8,19.8s19.8-8.9,19.8-19.8C139.2,75.3,130.3,66.5,119.4,66.5z"/>
</svg>
