<?xml version="1.0" encoding="utf-8"?>
<!-- Generator: Adobe Illustrator 23.0.3, SVG Export Plug-In . SVG Version: 6.00 Build 0)  -->
<svg version="1.1" xmlns="http://www.w3.org/2000/svg" xmlns:xlink="http://www.w3.org/1999/xlink" x="0px" y="0px"
	 viewBox="0 0 237.6 171.26" style="enable-background:new 0 0 237.6 171.26;" xml:space="preserve">
<path fill="currentColor" d="M185.13,163.44c-2.5,0-5-0.46-7.23-1.32c-5.55-2.14-8.56-6.14-10.55-8.79c-0.2-0.26-0.54-0.72-0.86-1.12
	c-0.39,0.03-0.8,0.07-1.11,0.1l-0.14,0.01c-2.53,0.25-6.02,0.6-9.58-0.16c-5.43-1.16-9.31-4.61-10.94-9.72
	c-0.16-0.5-0.29-1-0.39-1.52l-0.99-0.31c-4.42-1.4-8.96-2.83-13.51-4.18c-2.41,2.43-5.54,3.9-8.93,4.2c-0.04,0-0.08,0.01-0.11,0.01
	c-0.46,0.03-0.85,0.05-1.23,0.05c-7.23,0-11.7-4.87-14.37-7.77l-0.05-0.05c-0.38-0.41-0.9-0.97-1.28-1.35
	c-1.07-0.07-2.9,0.41-4.69,0.87c-4.25,1.09-10.63,2.74-17.17-0.42c-1.57-0.76-2.97-1.77-4.17-3c-1.94,0.2-3.85,0.27-5.62,0.34
	l-0.07,0c-0.31,0.01-0.63,0.03-0.93,0.04c-2.95,4.63-7.93,7.97-13.43,8.67c-5.64,0.74-10.19-1.33-13.51-2.84
	c-0.35-0.16-0.78-0.35-1.18-0.53c-2.08,1.59-5.78,4.24-11.31,4.24c-0.42,0-0.8-0.01-1.17-0.04c-8.02-0.53-13.49-6.98-14.76-13.08
	c-0.85-4.07-0.5-8.24,0.99-12.2c-2.66-10.94-2.78-22.17-0.31-30.88c0.39-1.39,0.9-2.62,1.31-3.62c0.08-0.2,0.23-0.56,0.35-0.86
	c-0.16-0.89-0.68-2.52-1.01-3.55c-0.28-0.88-0.63-1.98-0.93-3.08l-0.54-1.99c-1.61-5.86-3.27-11.93-4.72-18.57
	c-0.06-0.28-0.14-0.61-0.22-0.94l-0.05-0.21c-0.87-3.61-2.51-10.35,1.57-16.85l0.85-1.36c1.45-2.31,4.07-3.63,6.79-3.42l1.6,0.12
	c7.48,0.6,13.03,4.58,17.08,7.48l0.5,0.36c0.4,0.29,0.8,0.57,1.19,0.84c1.82,1.25,3.57,2.52,5.26,3.75l0.46,0.34
	c0.92,0.67,1.82,1.32,2.7,1.95c8.09-2.29,17.21-4.12,29.41-3.14c1.63,0.13,3.19,0.42,4.57,0.68c0.72,0.13,1.76,0.32,2.55,0.42
	c0.84-0.76,2.27-2.24,4.73-5.06l0.34-0.39c0.54-0.62,1.04-1.19,1.49-1.68c1.26-1.38,2.42-2.87,3.65-4.44
	c3.39-4.33,7.2-9.2,13.61-12.4l0.02-0.01c0.04-0.02,0.08-0.04,0.13-0.07c1.14-0.58,4.62-2.33,9.37-1.28l0.66,0.15
	c1.23,0.27,2.36,0.85,3.3,1.68l0.52,0.46c4.8,4.28,5.91,10.08,6.24,15.44c4.55-3.63,10.33-5.93,17.81-4.71
	c8.67,1.43,12.63,7.65,15,11.66c13.75,0.51,23.08,5.41,31.34,9.92c2.41-1.3,5.87-2.72,10.59-2.41
	c10.19,0.71,18.16,10.27,18.57,22.24c0.08,2.29-0.09,4.56-0.24,6.76l-0.02,0.32c-0.13,1.77-0.25,3.44-0.25,5.1
	c0.01,3.84,0.3,8.36,0.58,12.72c1.07,16.59,2.29,35.4-8.32,45.87c0,0,0,0,0,0c-3.15,3.1-7.1,5.19-11.63,6.15
	c-0.17,3.02-0.91,5.71-2.23,8.05C197.58,160.33,191.83,163.44,185.13,163.44z M167.58,152.14
	C167.58,152.14,167.58,152.14,167.58,152.14C167.58,152.14,167.58,152.14,167.58,152.14z M167.54,137.44c0.76,0,1.5,0.05,2.23,0.18
	c4.8,0.86,7.42,4.32,9.32,6.86c1.58,2.1,2.55,3.32,4.11,3.92c0.55,0.22,1.23,0.33,1.92,0.33c1.44,0,2.38-0.49,2.57-0.82
	c0.33-0.59,0.68-2.52-0.11-6c-0.52-2.28,0.07-4.66,1.59-6.43c1.52-1.77,3.8-2.71,6.12-2.54c0.44,0.03,0.88,0.05,1.3,0.05
	c3.27,0,5.71-0.83,7.44-2.54l0,0c5.83-5.76,4.8-21.67,3.98-34.46c-0.3-4.59-0.6-9.34-0.61-13.66c0-2.2,0.15-4.3,0.28-6.16l0.02-0.32
	c0.14-1.9,0.27-3.7,0.22-5.21c-0.16-4.8-2.96-7.94-4.89-8.07c-1.26-0.09-2.04,0.33-3.66,1.29c-1,0.59-2.12,1.24-3.48,1.73
	c-1.97,0.7-4.14,0.54-5.97-0.46c-0.93-0.5-1.86-1.01-2.78-1.52c-8.35-4.58-16.26-8.92-28.88-8.54c-2.42,0.07-4.72-1.06-6.15-3.01
	c-0.92-1.26-1.7-2.58-2.38-3.74c-2.15-3.66-3.07-4.77-4.99-5.08c-4.33-0.71-7.42,0.9-14.3,12.32l-0.29,0.49
	c-0.59,0.98-1.2,1.99-1.82,2.96c-1.78,2.78-5.19,4.04-8.35,3.07c-3.16-0.97-5.28-3.92-5.19-7.22c0.12-4.45,0.21-9.65,0.04-14.55
	c-0.03-0.81-0.04-1.6-0.06-2.38c-0.05-2.22-0.11-4.97-0.53-6.88c-2.69,1.75-4.7,4.32-7.15,7.46c-1.37,1.75-2.76,3.52-4.4,5.33
	c-0.39,0.43-0.82,0.91-1.28,1.44l-0.32,0.37c-5.36,6.15-8.56,9.2-12.29,9.93c-2.98,0.57-6.02,0.02-8.7-0.47
	c-1.13-0.21-2.25-0.42-3.12-0.49c-11.41-0.92-19.47,1.16-27.41,3.57c-2.12,0.64-4.42,0.29-6.25-0.95c-2-1.36-3.89-2.73-5.9-4.19
	l-0.47-0.34c-1.62-1.18-3.29-2.39-4.95-3.53c-0.47-0.32-0.94-0.66-1.42-1l-0.49-0.35c-1.88-1.35-3.7-2.65-5.55-3.56
	c0.12,0.66,0.29,1.38,0.48,2.17l0.05,0.22c0.1,0.41,0.19,0.81,0.28,1.19c1.39,6.31,2.92,11.94,4.55,17.89l0.54,1.99
	c0.22,0.8,0.51,1.7,0.76,2.5c0.93,2.91,1.97,6.21,1.7,9.42c-0.14,1.74-0.75,3.32-1.47,5.06c-0.29,0.71-0.58,1.4-0.74,1.98
	c-1.8,6.38-1.6,15.28,0.55,23.83l0.49,1.97c0.44,1.75,0.21,3.61-0.63,5.21c-0.92,1.74-1.2,3.41-0.85,5.1
	c0.09,0.45,0.74,1.37,1.35,1.4c0.05,0,0.09,0.01,0.14,0.01l0.05,0c0.69,0,1.18-0.3,2.64-1.42c1.59-1.22,3.77-2.89,6.96-3.21
	c3.33-0.34,6.32,1.02,8.96,2.22c2.1,0.95,4.07,1.85,5.56,1.65c1.4-0.18,2.98-1.57,3.32-2.92c0.76-3,3.32-5.2,6.4-5.5l0.72-0.07
	c1.69-0.18,3.39-0.25,5.19-0.32l0.1,0c2.38-0.09,5.04-0.19,7.01-0.62l1.05-0.23c3.5-0.76,7.03,1.11,8.37,4.43
	c0.14,0.35,0.28,0.51,0.32,0.53c1.59,0.77,3.74,0.3,7.09-0.57c3.89-0.99,8.66-2.22,13.78-0.41c2.88,1.02,4.9,3.21,6.68,5.14
	l0.06,0.07c0.95,1.04,2.67,2.91,3.48,3.03c0.09-0.12,0.24-0.35,0.39-0.74c1.37-3.56,5.23-5.48,8.89-4.43l1.58,0.45
	c5.92,1.7,11.77,3.55,17.43,5.33l2.96,0.93c1.08,0.34,2.16,0.68,3.24,1.02c3.87,1.21,6.02,5.33,4.82,9.2
	c-0.01,0.02-0.01,0.04-0.02,0.06c1.22,0.26,3.83,0,5.02-0.12l0.16-0.02C165.19,137.56,166.39,137.44,167.54,137.44z M209.21,135.68
	L209.21,135.68L209.21,135.68z M18.24,78.59L18.24,78.59L18.24,78.59z M18.35,77.76L18.35,77.76L18.35,77.76z"/>
<path fill="currentColor" d="M171.63,99.65c0.17,3.38-4.22,5.66-6.36,7.38c-3.37,2.7-7.15,6.42-12.21,5.09c-3.91-1.03-15.2-20.15-5.34-22.39
	c5.27-1.19,10.46,1.24,15.51,3.31C166.45,94.36,171.46,96.58,171.63,99.65z"/>
<path fill="currentColor" d="M76.21,97.62c-0.68,1.01-2.63,3.45-4.08,3.56c-2.03,0.16-3.85-2.03-5.09-3.31c-1.01-1.05-3.59-2.64-3.05-5.09
	c0.49-2.22,3.46-2.03,6.87-2.29c3.66-0.29,7.06-0.44,7.63,1.78C78.95,94.03,77.02,96.4,76.21,97.62z"/>
</svg>
