<?xml version="1.0" encoding="utf-8"?>
<svg version="1.1" id="Calque_1" xmlns="http://www.w3.org/2000/svg" xmlns:xlink="http://www.w3.org/1999/xlink" x="0px" y="0px"
	 viewBox="0 0 147 118" style="enable-background:new 0 0 147 118;" xml:space="preserve">
<style type="text/css">
	.svg_male0{fill:none;stroke:currentColor;stroke-width:9;stroke-linecap:round;stroke-miterlimit:10;}
	.svg_male1{clip-path:url(#SVGID_2_);}
	.svg_male2{clip-path:url(#SVGID_4_);}
	.svg_male3{clip-path:url(#SVGID_6_);}
	.svg_male4{clip-path:url(#SVGID_8_);fill:currentColor;}
</style>
<path class="svg_male0" d="M34.12,76.19c4.24,9.36,13.66,15.88,24.61,15.88c14.91,0,27-12.09,27-27c0-14.91-12.09-27-27-27
	c-9.55,0-17.95,4.96-22.75,12.45"/>
<line class="svg_male0" x1="80.44" y1="47.91" x2="101.27" y2="29.81"/>
<g>
	<defs>
		<path id="SVGID_1_" d="M106.95,19.2l-11.43,0.63c-2.1,0.12-3.71,1.91-3.59,4.01c0.05,0.94,0.45,1.82,1.11,2.48l6.03,6.03
			l6.03,6.02c1.49,1.49,3.9,1.49,5.39,0c0.66-0.66,1.06-1.55,1.11-2.48l0.63-11.43c0.15-2.76-1.96-5.12-4.72-5.27
			c-0.09-0.01-0.18-0.01-0.28-0.01C107.14,19.19,107.04,19.2,106.95,19.2z"/>
	</defs>
	<clipPath id="SVGID_2_">
		<use xlink:href="#SVGID_1_"  style="overflow:visible;"/>
	</clipPath>
	<g class="svg_male1">
		<g>
			<defs>
				<rect id="SVGID_3_" x="82.62" y="4.87" width="44" height="44"/>
			</defs>
			<clipPath id="SVGID_4_">
				<use xlink:href="#SVGID_3_"  style="overflow:visible;"/>
			</clipPath>
			<g class="svg_male2">
				<defs>
					
						<rect id="SVGID_5_" x="91.64" y="9.18" transform="matrix(0.7071 -0.7071 0.7071 0.7071 11.9848 81.9503)" width="26.55" height="34.66"/>
				</defs>
				<clipPath id="SVGID_6_">
					<use xlink:href="#SVGID_5_"  style="overflow:visible;"/>
				</clipPath>
				<g class="svg_male3">
					<defs>
						<rect id="SVGID_7_" x="91.62" y="18.87" width="21" height="22"/>
					</defs>
					<clipPath id="SVGID_8_">
						<use xlink:href="#SVGID_7_"  style="overflow:visible;"/>
					</clipPath>
					<rect x="78.27" y="-0.13" class="svg_male4" width="53.28" height="53.28"/>
				</g>
			</g>
		</g>
	</g>
</g>
</svg>
